<svg width="600" height="700" viewBox="0 0 600 700" fill="none" xmlns="http://www.w3.org/2000/svg">
  <defs>
    <linearGradient id="heroGrad" x1="0%" y1="0%" x2="100%" y2="100%">
      <stop offset="0%" style="stop-color:#8B6F47;stop-opacity:1" />
      <stop offset="100%" style="stop-color:#6B4F27;stop-opacity:1" />
    </linearGradient>
  </defs>
  <rect width="600" height="700" fill="url(#heroGrad)"/>
  
  <!-- Coffee cup icon -->
  <circle cx="300" cy="280" r="60" fill="rgba(255,255,255,0.2)" stroke="white" stroke-width="3"/>
  <rect x="270" y="250" width="60" height="60" rx="8" fill="none" stroke="white" stroke-width="2"/>
  <path d="M330 270 Q345 270 345 285 Q345 300 330 300" fill="none" stroke="white" stroke-width="2"/>
  
  <!-- Steam lines -->
  <path d="M285 240 Q285 230 290 230 Q295 230 295 240" fill="none" stroke="white" stroke-width="2" opacity="0.7"/>
  <path d="M300 240 Q300 230 305 230 Q310 230 310 240" fill="none" stroke="white" stroke-width="2" opacity="0.7"/>
  <path d="M315 240 Q315 230 320 230 Q325 230 325 240" fill="none" stroke="white" stroke-width="2" opacity="0.7"/>
  
  <text x="300" y="400" text-anchor="middle" fill="white" font-family="Arial, sans-serif" font-size="28" font-weight="bold">Bon Cafe</text>
  <text x="300" y="430" text-anchor="middle" fill="rgba(255,255,255,0.8)" font-family="Arial, sans-serif" font-size="16">Premium Coffee Experience</text>
</svg>